***************************************************************************

                        XxX Releasers Group

***************************************************************************

screens;
 
http://adulthub.eu/?v=playboy201.jpeg
 
http://adulthub.eu/?v=playbonhn.jpeg
 
http://adulthub.eu/?v=playbouju.jpeg

Format                                   : MPEG-4
Format profile                           : Base Media
Codec ID                                 : isom
File size                                : 458 MiB
Duration                                 : 10mn 0s
Overall bit rate                         : 6 403 Kbps
Writing application                      : Lavf54.3.100

Video
ID                                       : 1
Format                                   : AVC
Format/Info                              : Advanced Video Codec
Format profile                           : High@L4.1
Format settings, CABAC                   : Yes
Format settings, ReFrames                : 5 frames
Codec ID                                 : avc1
Codec ID/Info                            : Advanced Video Coding
Duration                                 : 9mn 59s
Bit rate                                 : 6 000 Kbps
Width                                    : 1 920 pixels
Height                                   : 1 080 pixels
Display aspect ratio                     : 16:9
Frame rate mode                          : Constant
Frame rate                               : 29.970 fps
Color space                              : YUV
Chroma subsampling                       : 4:2:0
Bit depth                                : 8 bits
Scan type                                : Progressive
Bits/(Pixel*Frame)                       : 0.097
Stream size                              : 425 MiB (93%)
Writing library                          : x264 core 
Tagged date                              : UTC 2012-11-10 02:36:48

Audio
ID                                       : 2
Format                                   : AAC
Format/Info                              : Advanced Audio Codec
Format profile                           : LC
Codec ID                                 : 40
Duration                                 : 10mn 0s
Duration_LastFrame                       : -4ms
Bit rate mode                            : Constant
Bit rate                                 : 192 Kbps
Channel(s)                               : 2 channels
Channel positions                        : Front: L R
Sampling rate                            : 48.0 KHz
Compression mode                         : Lossy
Stream size                              : 13.7 MiB (3%)
Tagged date                              : UTC 2012-11-10 02:36:48
